<svg width="100" height="100" viewBox="0 0 100 100" xmlns="http://www.w3.org/2000/svg">
  <defs>
    <!-- 대각선 패턴 -->
    <pattern id="diagonal-stripes" x="0" y="0" width="8" height="8" patternUnits="userSpaceOnUse">
      <rect width="8" height="8" fill="rgba(99, 102, 241, 0.1)"/>
      <path d="M0 8L8 0M-2 2L2 -2M6 10L10 6" stroke="rgba(99, 102, 241, 0.2)" stroke-width="1"/>
    </pattern>
    
    <!-- 점 패턴 -->
    <pattern id="dots" x="0" y="0" width="12" height="12" patternUnits="userSpaceOnUse">
      <rect width="12" height="12" fill="rgba(236, 254, 255, 0.3)"/>
      <circle cx="6" cy="6" r="1.5" fill="rgba(6, 182, 212, 0.4)"/>
    </pattern>
    
    <!-- 격자 패턴 -->
    <pattern id="grid" x="0" y="0" width="20" height="20" patternUnits="userSpaceOnUse">
      <rect width="20" height="20" fill="rgba(248, 250, 252, 0.8)"/>
      <path d="M 20 0 L 0 0 0 20" fill="none" stroke="rgba(148, 163, 184, 0.3)" stroke-width="1"/>
    </pattern>
  </defs>

  <!-- 배경 -->
  <rect width="100" height="100" fill="white"/>
  
  <!-- 패턴 레이어들 -->
  <rect x="0" y="0" width="33" height="100" fill="url(#diagonal-stripes)"/>
  <rect x="33" y="0" width="34" height="100" fill="url(#dots)"/>
  <rect x="67" y="0" width="33" height="100" fill="url(#grid)"/>
  
  <!-- 오버레이 그라데이션 -->
  <defs>
    <linearGradient id="overlay" x1="0%" y1="0%" x2="100%" y2="0%">
      <stop offset="0%" stop-color="rgba(99, 102, 241, 0.05)"/>
      <stop offset="50%" stop-color="rgba(6, 182, 212, 0.05)"/>
      <stop offset="100%" stop-color="rgba(168, 85, 247, 0.05)"/>
    </linearGradient>
  </defs>
  <rect width="100" height="100" fill="url(#overlay)"/>
</svg>